<mxfile host="app.diagrams.net" agent="Mozilla/5.0 (X11; Linux x86_64; rv:129.0) Gecko/20100101 Firefox/129.0" version="24.7.10">
  <diagram name="Page-1" id="jmGcx3rcbegGvscT4xKD">
    <mxGraphModel dx="528" dy="615" grid="1" gridSize="10" guides="1" tooltips="1" connect="1" arrows="1" fold="1" page="1" pageScale="1" pageWidth="850" pageHeight="1100" math="0" shadow="0">
      <root>
        <mxCell id="0" />
        <mxCell id="1" parent="0" />
        <mxCell id="Fj0nIoTJYzeS255Px3q0-221" value="" style="group;fontFamily=Fira sans;" vertex="1" connectable="0" parent="1">
          <mxGeometry x="200" y="120" width="50" height="50" as="geometry" />
        </mxCell>
        <mxCell id="Fj0nIoTJYzeS255Px3q0-222" value="" style="ellipse;whiteSpace=wrap;html=1;fillColor=#0496FF;strokeColor=none;gradientColor=none;rounded=0;fontFamily=Fira sans;" vertex="1" parent="Fj0nIoTJYzeS255Px3q0-221">
          <mxGeometry width="50" height="50" as="geometry" />
        </mxCell>
        <mxCell id="Fj0nIoTJYzeS255Px3q0-223" value="" style="verticalLabelPosition=bottom;verticalAlign=top;html=1;shape=mxgraph.basic.rect;fillColor2=none;strokeWidth=1;size=20;indent=5;shadow=0;sketch=1;curveFitting=1;jiggle=2;fontFamily=Fira sans;" vertex="1" parent="Fj0nIoTJYzeS255Px3q0-221">
          <mxGeometry x="15" y="17.5" width="20" height="15" as="geometry" />
        </mxCell>
        <mxCell id="Fj0nIoTJYzeS255Px3q0-224" value="" style="group;fontFamily=Fira sans;" vertex="1" connectable="0" parent="1">
          <mxGeometry x="40" y="120" width="50" height="50" as="geometry" />
        </mxCell>
        <mxCell id="Fj0nIoTJYzeS255Px3q0-225" value="" style="ellipse;whiteSpace=wrap;html=1;fillColor=#00E32D;strokeColor=none;gradientColor=none;rounded=0;fontFamily=Fira sans;" vertex="1" parent="Fj0nIoTJYzeS255Px3q0-224">
          <mxGeometry width="50" height="50" as="geometry" />
        </mxCell>
        <mxCell id="Fj0nIoTJYzeS255Px3q0-226" value="" style="group;glass=0;shadow=0;sketch=1;curveFitting=1;jiggle=2;fontFamily=Fira sans;" vertex="1" connectable="0" parent="Fj0nIoTJYzeS255Px3q0-224">
          <mxGeometry x="13" y="13" width="25" height="25" as="geometry" />
        </mxCell>
        <mxCell id="Fj0nIoTJYzeS255Px3q0-227" value="" style="rounded=0;whiteSpace=wrap;html=1;sketch=1;curveFitting=1;jiggle=2;fontFamily=Fira sans;" vertex="1" parent="Fj0nIoTJYzeS255Px3q0-226">
          <mxGeometry x="11.071428571428571" y="10.197368421052632" width="3.571428571428571" height="14.802631578947368" as="geometry" />
        </mxCell>
        <mxCell id="Fj0nIoTJYzeS255Px3q0-228" value="" style="ellipse;shape=cloud;whiteSpace=wrap;html=1;sketch=1;curveFitting=1;jiggle=2;fontFamily=Fira sans;" vertex="1" parent="Fj0nIoTJYzeS255Px3q0-226">
          <mxGeometry x="-1" y="1" width="25" height="19.73684210526316" as="geometry" />
        </mxCell>
        <mxCell id="Fj0nIoTJYzeS255Px3q0-229" style="edgeStyle=orthogonalEdgeStyle;rounded=0;orthogonalLoop=1;jettySize=auto;html=1;exitX=1;exitY=0.5;exitDx=0;exitDy=0;entryX=0;entryY=0.5;entryDx=0;entryDy=0;strokeColor=#000000;fontColor=#E4FDE1;fillColor=#F45B69;fontFamily=Fira sans;" edge="1" parent="1" source="Fj0nIoTJYzeS255Px3q0-225" target="Fj0nIoTJYzeS255Px3q0-222">
          <mxGeometry relative="1" as="geometry" />
        </mxCell>
        <mxCell id="Fj0nIoTJYzeS255Px3q0-230" value="&lt;div&gt;Collect data&lt;/div&gt;&lt;div&gt;from the field&lt;br&gt; &lt;/div&gt;" style="edgeLabel;html=1;align=center;verticalAlign=middle;resizable=0;points=[];strokeColor=#028090;fontColor=#000000;fillColor=#F45B69;fontFamily=Fira sans;" vertex="1" connectable="0" parent="Fj0nIoTJYzeS255Px3q0-229">
          <mxGeometry y="-2" relative="1" as="geometry">
            <mxPoint as="offset" />
          </mxGeometry>
        </mxCell>
        <mxCell id="Fj0nIoTJYzeS255Px3q0-231" value="" style="edgeStyle=orthogonalEdgeStyle;rounded=0;orthogonalLoop=1;jettySize=auto;html=1;fontFamily=Fira sans;" edge="1" parent="1" source="Fj0nIoTJYzeS255Px3q0-222" target="Fj0nIoTJYzeS255Px3q0-234">
          <mxGeometry relative="1" as="geometry">
            <Array as="points">
              <mxPoint x="270" y="145" />
              <mxPoint x="270" y="145" />
            </Array>
          </mxGeometry>
        </mxCell>
        <mxCell id="Fj0nIoTJYzeS255Px3q0-232" value="&lt;div&gt;Create&lt;/div&gt;&lt;div&gt;balanced&lt;/div&gt;&lt;div&gt;dataset&lt;br&gt;&lt;/div&gt;&amp;nbsp;of 14 classes" style="edgeLabel;html=1;align=center;verticalAlign=middle;resizable=0;points=[];fontFamily=Fira sans;" vertex="1" connectable="0" parent="Fj0nIoTJYzeS255Px3q0-231">
          <mxGeometry x="0.0154" y="-1" relative="1" as="geometry">
            <mxPoint as="offset" />
          </mxGeometry>
        </mxCell>
        <mxCell id="Fj0nIoTJYzeS255Px3q0-233" value="" style="group;fontFamily=Fira sans;" vertex="1" connectable="0" parent="1">
          <mxGeometry x="360" y="120" width="50" height="50" as="geometry" />
        </mxCell>
        <mxCell id="Fj0nIoTJYzeS255Px3q0-248" style="edgeStyle=orthogonalEdgeStyle;rounded=0;orthogonalLoop=1;jettySize=auto;html=1;fontFamily=Fira sans;" edge="1" parent="Fj0nIoTJYzeS255Px3q0-233" source="Fj0nIoTJYzeS255Px3q0-234">
          <mxGeometry relative="1" as="geometry">
            <mxPoint x="120" y="25" as="targetPoint" />
          </mxGeometry>
        </mxCell>
        <mxCell id="Fj0nIoTJYzeS255Px3q0-234" value="" style="ellipse;whiteSpace=wrap;html=1;fillColor=#0496FF;strokeColor=none;gradientColor=none;rounded=0;fontFamily=Fira sans;" vertex="1" parent="Fj0nIoTJYzeS255Px3q0-233">
          <mxGeometry width="50" height="50" as="geometry" />
        </mxCell>
        <mxCell id="Fj0nIoTJYzeS255Px3q0-235" value="" style="verticalLabelPosition=bottom;verticalAlign=top;html=1;shape=mxgraph.basic.rect;fillColor2=none;strokeWidth=1;size=7.5;indent=5;shadow=0;sketch=1;curveFitting=1;jiggle=2;fontFamily=Fira sans;" vertex="1" parent="Fj0nIoTJYzeS255Px3q0-233">
          <mxGeometry x="15" y="17.5" width="20" height="15" as="geometry" />
        </mxCell>
        <mxCell id="Fj0nIoTJYzeS255Px3q0-236" value="" style="group;fontFamily=Fira sans;" vertex="1" connectable="0" parent="1">
          <mxGeometry x="535" y="55" width="50" height="50" as="geometry" />
        </mxCell>
        <mxCell id="Fj0nIoTJYzeS255Px3q0-237" value="" style="ellipse;whiteSpace=wrap;html=1;fillColor=#0496FF;strokeColor=none;gradientColor=none;rounded=0;fontFamily=Fira sans;" vertex="1" parent="Fj0nIoTJYzeS255Px3q0-236">
          <mxGeometry width="50" height="50" as="geometry" />
        </mxCell>
        <mxCell id="Fj0nIoTJYzeS255Px3q0-238" value="" style="verticalLabelPosition=bottom;verticalAlign=top;html=1;shape=mxgraph.basic.rect;fillColor2=none;strokeWidth=1;size=7.5;indent=5;shadow=0;sketch=1;curveFitting=1;jiggle=2;fontFamily=Fira sans;" vertex="1" parent="Fj0nIoTJYzeS255Px3q0-236">
          <mxGeometry x="15" y="17.5" width="20" height="15" as="geometry" />
        </mxCell>
        <mxCell id="Fj0nIoTJYzeS255Px3q0-239" style="edgeStyle=orthogonalEdgeStyle;rounded=0;orthogonalLoop=1;jettySize=auto;html=1;exitX=1;exitY=0.5;exitDx=0;exitDy=0;entryX=0;entryY=0.5;entryDx=0;entryDy=0;fontFamily=Fira sans;" edge="1" parent="1" source="Fj0nIoTJYzeS255Px3q0-234" target="Fj0nIoTJYzeS255Px3q0-237">
          <mxGeometry relative="1" as="geometry">
            <mxPoint x="490" y="65" as="targetPoint" />
            <mxPoint x="470" y="170" as="sourcePoint" />
            <Array as="points">
              <mxPoint x="430" y="145" />
              <mxPoint x="430" y="80" />
            </Array>
          </mxGeometry>
        </mxCell>
        <mxCell id="Fj0nIoTJYzeS255Px3q0-242" value="&lt;div&gt;10 images&lt;/div&gt;&lt;div&gt;per class&lt;br&gt;&lt;/div&gt;" style="edgeLabel;html=1;align=center;verticalAlign=middle;resizable=0;points=[];fontFamily=Fira sans;" vertex="1" connectable="0" parent="Fj0nIoTJYzeS255Px3q0-239">
          <mxGeometry x="-0.1304" y="-1" relative="1" as="geometry">
            <mxPoint x="49" y="-2" as="offset" />
          </mxGeometry>
        </mxCell>
        <mxCell id="Fj0nIoTJYzeS255Px3q0-243" value="" style="group;fontFamily=Fira sans;" vertex="1" connectable="0" parent="1">
          <mxGeometry x="536" y="184" width="50" height="50" as="geometry" />
        </mxCell>
        <mxCell id="Fj0nIoTJYzeS255Px3q0-244" value="" style="ellipse;whiteSpace=wrap;html=1;fillColor=#0496FF;strokeColor=none;gradientColor=none;rounded=0;fontFamily=Fira sans;" vertex="1" parent="Fj0nIoTJYzeS255Px3q0-243">
          <mxGeometry width="50" height="50" as="geometry" />
        </mxCell>
        <mxCell id="Fj0nIoTJYzeS255Px3q0-245" value="" style="verticalLabelPosition=bottom;verticalAlign=top;html=1;shape=mxgraph.basic.rect;fillColor2=none;strokeWidth=1;size=7.5;indent=5;shadow=0;sketch=1;curveFitting=1;jiggle=2;fontFamily=Fira sans;" vertex="1" parent="Fj0nIoTJYzeS255Px3q0-243">
          <mxGeometry x="15" y="17.5" width="20" height="15" as="geometry" />
        </mxCell>
        <mxCell id="Fj0nIoTJYzeS255Px3q0-246" style="edgeStyle=orthogonalEdgeStyle;rounded=0;orthogonalLoop=1;jettySize=auto;html=1;entryX=0;entryY=0.5;entryDx=0;entryDy=0;fontFamily=Fira sans;" edge="1" parent="1" source="Fj0nIoTJYzeS255Px3q0-234" target="Fj0nIoTJYzeS255Px3q0-244">
          <mxGeometry relative="1" as="geometry">
            <Array as="points">
              <mxPoint x="430" y="145" />
              <mxPoint x="430" y="210" />
              <mxPoint x="536" y="210" />
            </Array>
          </mxGeometry>
        </mxCell>
        <mxCell id="Fj0nIoTJYzeS255Px3q0-247" value="&lt;div&gt;1000 images&lt;/div&gt;&lt;div&gt;per class&lt;br&gt;&lt;/div&gt;" style="edgeLabel;html=1;align=center;verticalAlign=middle;resizable=0;points=[];fontFamily=Fira sans;" vertex="1" connectable="0" parent="Fj0nIoTJYzeS255Px3q0-246">
          <mxGeometry x="0.0991" relative="1" as="geometry">
            <mxPoint x="32" as="offset" />
          </mxGeometry>
        </mxCell>
        <mxCell id="Fj0nIoTJYzeS255Px3q0-249" value="&lt;font style=&quot;font-size: 16px;&quot;&gt;...&lt;/font&gt;" style="text;html=1;align=center;verticalAlign=middle;whiteSpace=wrap;rounded=0;rotation=90;fontFamily=Fira sans;" vertex="1" parent="1">
          <mxGeometry x="475" y="130" width="60" height="30" as="geometry" />
        </mxCell>
        <mxCell id="Fj0nIoTJYzeS255Px3q0-260" style="edgeStyle=orthogonalEdgeStyle;rounded=0;orthogonalLoop=1;jettySize=auto;html=1;entryX=0;entryY=0.5;entryDx=0;entryDy=0;fontFamily=Fira sans;" edge="1" parent="1" source="Fj0nIoTJYzeS255Px3q0-255" target="Fj0nIoTJYzeS255Px3q0-258">
          <mxGeometry relative="1" as="geometry" />
        </mxCell>
        <mxCell id="Fj0nIoTJYzeS255Px3q0-261" value="True" style="edgeLabel;html=1;align=center;verticalAlign=middle;resizable=0;points=[];fontFamily=Fira sans;" vertex="1" connectable="0" parent="Fj0nIoTJYzeS255Px3q0-260">
          <mxGeometry x="0.0391" y="-1" relative="1" as="geometry">
            <mxPoint y="-1" as="offset" />
          </mxGeometry>
        </mxCell>
        <mxCell id="Fj0nIoTJYzeS255Px3q0-265" style="edgeStyle=orthogonalEdgeStyle;rounded=0;orthogonalLoop=1;jettySize=auto;html=1;entryX=0;entryY=0.5;entryDx=0;entryDy=0;fontFamily=Fira sans;" edge="1" parent="1" source="Fj0nIoTJYzeS255Px3q0-255" target="Fj0nIoTJYzeS255Px3q0-263">
          <mxGeometry relative="1" as="geometry">
            <Array as="points">
              <mxPoint x="700" y="155" />
            </Array>
          </mxGeometry>
        </mxCell>
        <mxCell id="Fj0nIoTJYzeS255Px3q0-266" value="False" style="edgeLabel;html=1;align=center;verticalAlign=middle;resizable=0;points=[];fontFamily=Fira sans;" vertex="1" connectable="0" parent="Fj0nIoTJYzeS255Px3q0-265">
          <mxGeometry x="0.0042" y="-3" relative="1" as="geometry">
            <mxPoint x="18" y="-3" as="offset" />
          </mxGeometry>
        </mxCell>
        <mxCell id="Fj0nIoTJYzeS255Px3q0-255" value="&lt;div&gt;&amp;lt;500 images&lt;/div&gt;&lt;div&gt;per class?&lt;/div&gt;" style="rhombus;whiteSpace=wrap;html=1;fontFamily=Fira sans;fillColor=#FF99FF;strokeColor=none;gradientColor=none;rounded=0;" vertex="1" parent="1">
          <mxGeometry x="640" y="40" width="120" height="80" as="geometry" />
        </mxCell>
        <mxCell id="Fj0nIoTJYzeS255Px3q0-256" value="" style="edgeStyle=orthogonalEdgeStyle;rounded=0;orthogonalLoop=1;jettySize=auto;html=1;fontFamily=Fira sans;" edge="1" parent="1" source="Fj0nIoTJYzeS255Px3q0-237" target="Fj0nIoTJYzeS255Px3q0-255">
          <mxGeometry relative="1" as="geometry" />
        </mxCell>
        <mxCell id="Fj0nIoTJYzeS255Px3q0-257" value="" style="group;fontFamily=Fira sans;" vertex="1" connectable="0" parent="1">
          <mxGeometry x="820" y="55" width="50" height="50" as="geometry" />
        </mxCell>
        <mxCell id="Fj0nIoTJYzeS255Px3q0-258" value="" style="ellipse;whiteSpace=wrap;html=1;fillColor=#0496FF;strokeColor=none;gradientColor=none;rounded=0;fontFamily=Fira sans;" vertex="1" parent="Fj0nIoTJYzeS255Px3q0-257">
          <mxGeometry width="50" height="50" as="geometry" />
        </mxCell>
        <mxCell id="Fj0nIoTJYzeS255Px3q0-259" value="" style="verticalLabelPosition=bottom;verticalAlign=top;html=1;shape=mxgraph.basic.rect;fillColor2=none;strokeWidth=1;size=7.5;indent=5;shadow=0;sketch=1;curveFitting=1;jiggle=2;fontFamily=Fira sans;" vertex="1" parent="Fj0nIoTJYzeS255Px3q0-257">
          <mxGeometry x="15" y="17.5" width="20" height="15" as="geometry" />
        </mxCell>
        <mxCell id="Fj0nIoTJYzeS255Px3q0-262" value="" style="group;fontFamily=Fira sans;" vertex="1" connectable="0" parent="1">
          <mxGeometry x="820" y="130" width="50" height="50" as="geometry" />
        </mxCell>
        <mxCell id="Fj0nIoTJYzeS255Px3q0-263" value="" style="ellipse;whiteSpace=wrap;html=1;fillColor=#0496FF;strokeColor=none;gradientColor=none;rounded=0;fontFamily=Fira sans;" vertex="1" parent="Fj0nIoTJYzeS255Px3q0-262">
          <mxGeometry width="50" height="50" as="geometry" />
        </mxCell>
        <mxCell id="Fj0nIoTJYzeS255Px3q0-264" value="" style="verticalLabelPosition=bottom;verticalAlign=top;html=1;shape=mxgraph.basic.rect;fillColor2=none;strokeWidth=1;size=7.5;indent=5;shadow=0;sketch=1;curveFitting=1;jiggle=2;fontFamily=Fira sans;" vertex="1" parent="Fj0nIoTJYzeS255Px3q0-262">
          <mxGeometry x="15" y="17.5" width="20" height="15" as="geometry" />
        </mxCell>
        <mxCell id="Fj0nIoTJYzeS255Px3q0-267" value="" style="group;fontFamily=Fira sans;" vertex="1" connectable="0" parent="1">
          <mxGeometry x="1010" y="55" width="50" height="50" as="geometry" />
        </mxCell>
        <mxCell id="Fj0nIoTJYzeS255Px3q0-268" value="" style="ellipse;whiteSpace=wrap;html=1;fillColor=#0496FF;strokeColor=none;gradientColor=none;rounded=0;fontFamily=Fira sans;" vertex="1" parent="Fj0nIoTJYzeS255Px3q0-267">
          <mxGeometry width="50" height="50" as="geometry" />
        </mxCell>
        <mxCell id="Fj0nIoTJYzeS255Px3q0-269" value="" style="verticalLabelPosition=bottom;verticalAlign=top;html=1;shape=mxgraph.basic.rect;fillColor2=none;strokeWidth=1;size=7.5;indent=5;shadow=0;sketch=1;curveFitting=1;jiggle=2;fontFamily=Fira sans;" vertex="1" parent="Fj0nIoTJYzeS255Px3q0-267">
          <mxGeometry x="15" y="17.5" width="20" height="15" as="geometry" />
        </mxCell>
        <mxCell id="Fj0nIoTJYzeS255Px3q0-270" style="edgeStyle=orthogonalEdgeStyle;rounded=0;orthogonalLoop=1;jettySize=auto;html=1;entryX=0;entryY=0.5;entryDx=0;entryDy=0;fontFamily=Fira sans;" edge="1" parent="1" source="Fj0nIoTJYzeS255Px3q0-258" target="Fj0nIoTJYzeS255Px3q0-268">
          <mxGeometry relative="1" as="geometry" />
        </mxCell>
        <mxCell id="Fj0nIoTJYzeS255Px3q0-271" value="&lt;div&gt;Double training set&lt;/div&gt;&lt;div&gt;by creating&lt;/div&gt;&lt;div&gt;augmented images&lt;br&gt;&lt;/div&gt;" style="edgeLabel;html=1;align=center;verticalAlign=middle;resizable=0;points=[];fontFamily=Fira sans;" vertex="1" connectable="0" parent="Fj0nIoTJYzeS255Px3q0-270">
          <mxGeometry x="-0.1532" y="1" relative="1" as="geometry">
            <mxPoint x="11" y="1" as="offset" />
          </mxGeometry>
        </mxCell>
        <mxCell id="Fj0nIoTJYzeS255Px3q0-287" style="edgeStyle=orthogonalEdgeStyle;rounded=0;orthogonalLoop=1;jettySize=auto;html=1;entryX=0;entryY=0.5;entryDx=0;entryDy=0;fontFamily=Fira sans;" edge="1" parent="1" source="Fj0nIoTJYzeS255Px3q0-280" target="Fj0nIoTJYzeS255Px3q0-285">
          <mxGeometry relative="1" as="geometry" />
        </mxCell>
        <mxCell id="Fj0nIoTJYzeS255Px3q0-280" value="&lt;div align=&quot;center&quot;&gt;Split into 5 folds for cross-validation&lt;/div&gt;" style="text;strokeColor=none;fillColor=none;spacingLeft=4;spacingRight=4;overflow=hidden;rotatable=0;points=[[0,0.5],[1,0.5]];portConstraint=eastwest;fontSize=12;whiteSpace=wrap;html=1;align=center;fontFamily=Fira sans;" vertex="1" parent="1">
          <mxGeometry x="980" y="140" width="110" height="30" as="geometry" />
        </mxCell>
        <mxCell id="Fj0nIoTJYzeS255Px3q0-281" style="edgeStyle=orthogonalEdgeStyle;rounded=0;orthogonalLoop=1;jettySize=auto;html=1;exitX=0.5;exitY=1;exitDx=0;exitDy=0;entryX=0.489;entryY=0.051;entryDx=0;entryDy=0;entryPerimeter=0;fontFamily=Fira sans;" edge="1" parent="1" source="Fj0nIoTJYzeS255Px3q0-268" target="Fj0nIoTJYzeS255Px3q0-280">
          <mxGeometry relative="1" as="geometry">
            <Array as="points">
              <mxPoint x="1034" y="105" />
            </Array>
          </mxGeometry>
        </mxCell>
        <mxCell id="Fj0nIoTJYzeS255Px3q0-283" style="edgeStyle=orthogonalEdgeStyle;rounded=0;orthogonalLoop=1;jettySize=auto;html=1;fontFamily=Fira sans;" edge="1" parent="1" source="Fj0nIoTJYzeS255Px3q0-263" target="Fj0nIoTJYzeS255Px3q0-280">
          <mxGeometry relative="1" as="geometry" />
        </mxCell>
        <mxCell id="Fj0nIoTJYzeS255Px3q0-284" value="" style="group;fontFamily=Fira sans;" vertex="1" connectable="0" parent="1">
          <mxGeometry x="1110" y="130" width="50" height="50" as="geometry" />
        </mxCell>
        <mxCell id="Fj0nIoTJYzeS255Px3q0-285" value="" style="ellipse;whiteSpace=wrap;html=1;fillColor=#0496FF;strokeColor=none;gradientColor=none;rounded=0;fontFamily=Fira sans;" vertex="1" parent="Fj0nIoTJYzeS255Px3q0-284">
          <mxGeometry width="50" height="50" as="geometry" />
        </mxCell>
        <mxCell id="Fj0nIoTJYzeS255Px3q0-286" value="" style="verticalLabelPosition=bottom;verticalAlign=top;html=1;shape=mxgraph.basic.rect;fillColor2=none;strokeWidth=1;size=7.5;indent=5;shadow=0;sketch=1;curveFitting=1;jiggle=2;fontFamily=Fira sans;" vertex="1" parent="Fj0nIoTJYzeS255Px3q0-284">
          <mxGeometry x="15" y="17.5" width="20" height="15" as="geometry" />
        </mxCell>
        <mxCell id="Fj0nIoTJYzeS255Px3q0-290" value="" style="group;fontFamily=Fira sans;" vertex="1" connectable="0" parent="1">
          <mxGeometry x="1285" y="65" width="50" height="50" as="geometry" />
        </mxCell>
        <mxCell id="Fj0nIoTJYzeS255Px3q0-288" value="" style="ellipse;whiteSpace=wrap;html=1;fillColor=#FFBC42;strokeColor=none;gradientColor=none;rounded=0;labelBackgroundColor=none;fontFamily=Fira sans;" vertex="1" parent="Fj0nIoTJYzeS255Px3q0-290">
          <mxGeometry width="50" height="50" as="geometry" />
        </mxCell>
        <mxCell id="Fj0nIoTJYzeS255Px3q0-289" value="" style="html=1;shape=mxgraph.basic.isocube;isoAngle=15;sketch=1;curveFitting=1;jiggle=2;fontFamily=Fira sans;" vertex="1" parent="Fj0nIoTJYzeS255Px3q0-290">
          <mxGeometry x="15" y="15" width="20" height="20" as="geometry" />
        </mxCell>
        <mxCell id="Fj0nIoTJYzeS255Px3q0-304" style="edgeStyle=orthogonalEdgeStyle;rounded=0;orthogonalLoop=1;jettySize=auto;html=1;fontFamily=Fira sans;" edge="1" parent="1">
          <mxGeometry relative="1" as="geometry">
            <mxPoint x="1230" y="155" as="targetPoint" />
            <mxPoint x="1160" y="155" as="sourcePoint" />
          </mxGeometry>
        </mxCell>
        <mxCell id="Fj0nIoTJYzeS255Px3q0-308" style="edgeStyle=orthogonalEdgeStyle;rounded=0;orthogonalLoop=1;jettySize=auto;html=1;exitX=1;exitY=0.5;exitDx=0;exitDy=0;entryX=0;entryY=0.5;entryDx=0;entryDy=0;fontFamily=Fira sans;" edge="1" parent="1" target="Fj0nIoTJYzeS255Px3q0-288">
          <mxGeometry relative="1" as="geometry">
            <mxPoint x="1285" y="90" as="targetPoint" />
            <mxPoint x="1160" y="155" as="sourcePoint" />
            <Array as="points">
              <mxPoint x="1180" y="155" />
              <mxPoint x="1180" y="90" />
            </Array>
          </mxGeometry>
        </mxCell>
        <mxCell id="Fj0nIoTJYzeS255Px3q0-309" value="YOLOv8 nano" style="edgeLabel;html=1;align=center;verticalAlign=middle;resizable=0;points=[];fontFamily=Fira sans;" vertex="1" connectable="0" parent="Fj0nIoTJYzeS255Px3q0-308">
          <mxGeometry x="-0.1304" y="-1" relative="1" as="geometry">
            <mxPoint x="49" y="-2" as="offset" />
          </mxGeometry>
        </mxCell>
        <mxCell id="Fj0nIoTJYzeS255Px3q0-313" style="edgeStyle=orthogonalEdgeStyle;rounded=0;orthogonalLoop=1;jettySize=auto;html=1;exitX=1;exitY=0.5;exitDx=0;exitDy=0;entryX=0;entryY=0.5;entryDx=0;entryDy=0;fontFamily=Fira sans;" edge="1" parent="1" target="Fj0nIoTJYzeS255Px3q0-329" source="Fj0nIoTJYzeS255Px3q0-285">
          <mxGeometry relative="1" as="geometry">
            <mxPoint x="1153.97" y="210.5" as="sourcePoint" />
            <Array as="points">
              <mxPoint x="1180" y="155" />
              <mxPoint x="1180" y="218" />
            </Array>
            <mxPoint x="1285" y="218" as="targetPoint" />
          </mxGeometry>
        </mxCell>
        <mxCell id="Fj0nIoTJYzeS255Px3q0-314" value="YOLOv8 X" style="edgeLabel;html=1;align=center;verticalAlign=middle;resizable=0;points=[];fontFamily=Fira sans;" vertex="1" connectable="0" parent="Fj0nIoTJYzeS255Px3q0-313">
          <mxGeometry x="0.0991" relative="1" as="geometry">
            <mxPoint x="30" as="offset" />
          </mxGeometry>
        </mxCell>
        <mxCell id="Fj0nIoTJYzeS255Px3q0-315" value="&lt;font style=&quot;font-size: 16px;&quot;&gt;...&lt;/font&gt;" style="text;html=1;align=center;verticalAlign=middle;whiteSpace=wrap;rounded=0;rotation=90;fontFamily=Fira sans;" vertex="1" parent="1">
          <mxGeometry x="1225" y="140" width="60" height="30" as="geometry" />
        </mxCell>
        <mxCell id="Fj0nIoTJYzeS255Px3q0-328" value="" style="group;fontFamily=Fira sans;" vertex="1" connectable="0" parent="1">
          <mxGeometry x="1285" y="193" width="50" height="50" as="geometry" />
        </mxCell>
        <mxCell id="Fj0nIoTJYzeS255Px3q0-329" value="" style="ellipse;whiteSpace=wrap;html=1;fillColor=#FFBC42;strokeColor=none;gradientColor=none;rounded=0;labelBackgroundColor=none;fontFamily=Fira sans;" vertex="1" parent="Fj0nIoTJYzeS255Px3q0-328">
          <mxGeometry width="50" height="50" as="geometry" />
        </mxCell>
        <mxCell id="Fj0nIoTJYzeS255Px3q0-330" value="" style="html=1;shape=mxgraph.basic.isocube;isoAngle=15;sketch=1;curveFitting=1;jiggle=2;fontFamily=Fira sans;" vertex="1" parent="Fj0nIoTJYzeS255Px3q0-328">
          <mxGeometry x="15" y="15" width="20" height="20" as="geometry" />
        </mxCell>
      </root>
    </mxGraphModel>
  </diagram>
</mxfile>
